<svg width="16" height="15" viewBox="0 0 16 15" fill="none" xmlns="http://www.w3.org/2000/svg">
    <path
        d="M3.0403 4.94217C6.3037 7.58502 6.35431 7.61346 6.40651 7.63371C6.87171 7.96115 7.4276 8.13422 7.99645 8.12864C8.56187 8.13544 9.11534 7.96377 9.57761 7.6381C9.63431 7.61786 9.68867 7.58772 12.9561 4.94217C13.0681 4.85132 13.1392 4.71974 13.1543 4.57632C13.1694 4.43291 13.1272 4.28938 13.0365 4.17719C12.9457 4.0652 12.8143 3.99388 12.6709 3.97878C12.5275 3.96368 12.3836 4.00605 12.2715 4.09666L9.00983 6.71295C8.71483 6.92795 8.35929 7.04374 7.99426 7.04374C7.62922 7.04374 7.27368 6.92795 6.97868 6.71295L3.72497 4.09666C3.61278 4.00605 3.46893 3.96368 3.32551 3.97878C3.18209 3.99388 3.05073 4.0652 2.95988 4.17719C2.86938 4.28942 2.82701 4.43294 2.84211 4.57632C2.8572 4.71971 2.92841 4.85125 3.0403 4.94217Z"
        fill="#ffff" />
    <path fill-rule="evenodd" clip-rule="evenodd"
        d="M4.38541 14.1866H11.6138C14.2521 14.1866 15.7704 12.6683 15.7704 10.0299V4.97013C15.7704 2.33133 14.2521 0.813477 11.6138 0.813477H4.38541C1.74661 0.813477 0.22876 2.33133 0.22876 4.97013V10.0299C0.22876 12.6683 1.74661 14.1866 4.38541 14.1866ZM1.31326 4.97013C1.31326 2.90238 2.31766 1.89798 4.38541 1.89798H11.6138C13.6811 1.89798 14.6859 2.90283 14.6859 4.97013V10.0299C14.6859 12.0972 13.6811 13.1021 11.6138 13.1021H4.38541C2.31811 13.1021 1.31326 12.0972 1.31326 10.0299V4.97013Z"
        fill="#ffff" />
</svg>