<svg viewBox="0 0 40 41" width='14' height="14">
    <path
        d="M18.7988 13.0493V14.5444H12.0016C11.7649 14.545 11.5336 14.6155 11.3368 14.7473C11.1401 14.8791 10.9868 15.0662 10.8961 15.2849C10.8055 15.5036 10.7816 15.7443 10.8274 15.9766C10.8732 16.2089 10.9867 16.4224 11.1536 16.5903C11.3796 16.8147 11.6833 16.9434 12.0016 16.9495H22.7627C22.5467 19.2793 21.5954 21.4887 20.0364 23.2515L20.0164 23.2663C19.8907 23.3594 19.7847 23.4764 19.7044 23.6106C17.6771 25.7083 14.9023 26.92 11.9847 26.9805C11.7464 26.981 11.5135 27.0521 11.3156 27.1848C11.1176 27.3176 10.9635 27.5058 10.8725 27.7261C10.7816 27.9464 10.7579 28.1889 10.8046 28.4226C10.8513 28.6563 10.9661 28.8708 11.1347 29.0393C11.361 29.2627 11.6667 29.3873 11.9847 29.3855C15.1876 29.3305 18.2533 28.1357 20.6414 26.0359C21.4199 26.8897 22.3389 27.6088 23.3617 28.1604C24.7944 28.9331 26.39 29.3549 28.0174 29.3913C28.3369 29.3851 28.642 29.2571 28.8704 29.0334C29.0982 28.8098 29.2289 28.5057 29.2344 28.1865C29.2323 27.8689 29.1052 27.5649 28.8806 27.3403C28.656 27.1157 28.352 26.9884 28.0344 26.9863C26.7796 26.9423 25.5527 26.6042 24.4525 25.9992C23.6418 25.5534 22.9165 24.9718 22.3072 24.2821C23.9721 22.1794 24.9717 19.6252 25.1755 16.9495H28.0016C28.32 16.9434 28.6237 16.8147 28.8496 16.5903C29.0166 16.4224 29.1301 16.2089 29.1759 15.9766C29.2217 15.7443 29.1978 15.5036 29.1072 15.2849C29.0165 15.0662 28.8632 14.8791 28.6664 14.7473C28.4697 14.6155 28.2384 14.545 28.0016 14.5444H24.3008C24.2065 14.5209 24.109 14.5088 24.0102 14.5088C23.9114 14.5088 23.8139 14.5209 23.7197 14.5444H21.2038V13.0493C21.2038 12.7304 21.0771 12.4245 20.8516 12.199C20.6261 11.9735 20.3202 11.8467 20.0013 11.8467C19.6824 11.8467 19.3765 11.9735 19.151 12.199C18.9255 12.4245 18.7988 12.7304 18.7988 13.0493Z"
        fill="#ffff"></path>
    <path class="Icon" fill-rule="evenodd" clip-rule="evenodd"
        d="M15.1907 37.8562H24.8107C33.5177 37.8562 37.2387 34.137 37.2387 25.426V15.8052C37.2387 7.10118 33.5187 3.375 24.8117 3.375H15.1907C6.48367 3.375 2.76367 7.10518 2.76367 15.8052V25.426C2.76367 34.136 6.48367 37.8562 15.1907 37.8562ZM5.16767 15.8052C5.16767 8.41018 7.79767 5.78711 15.1897 5.78711H24.8107C32.2027 5.78711 34.8327 8.40518 34.8327 15.8052V25.426C34.8327 32.821 32.2027 35.4441 24.8107 35.4441H15.1897C7.79767 35.4441 5.16767 32.826 5.16767 25.426V15.8052Z"
        fill="#ffff"></path>
    <defs>
        <clipPath id="clip0_35181_4358">
            <rect width="40" height="40" fill="white" transform="translate(0 0.617188)"></rect>
        </clipPath>
    </defs>
</svg>