<svg width="14" height="14" viewBox="0 0 14 14" fill="none" xmlns="http://www.w3.org/2000/svg">
    <path fill-rule="evenodd" clip-rule="evenodd"
        d="M0.824426 13.1791C1.21037 13.5464 1.7243 13.7486 2.25708 13.7425C2.30433 13.7425 2.36343 13.7402 2.41968 13.733H2.45176C2.49271 13.7308 2.53772 13.7285 2.58272 13.7285L4.90573 13.4005C5.47183 13.2934 5.99646 13.0291 6.41924 12.6377L12.508 6.54956C12.8452 6.21829 13.1349 5.84191 13.3689 5.43123C13.5666 5.0821 13.6891 4.69556 13.7289 4.29631C13.7738 3.81079 13.6924 3.32187 13.4929 2.87696C13.2542 2.3581 12.9204 1.88871 12.5085 1.49319C12.1749 1.15156 11.7931 0.860389 11.3755 0.628769C10.9463 0.389416 10.4642 0.260592 9.97275 0.253906C9.49129 0.282074 9.02034 0.406158 8.58756 0.618991C8.15478 0.831824 7.7691 1.12907 7.45286 1.49319L1.36453 7.58186C1.16642 7.78936 1.00235 8.02689 0.87848 8.28566C0.749071 8.54054 0.659464 8.81372 0.612604 9.0957L0.284764 11.4192C0.231341 11.7424 0.252883 12.0736 0.348047 12.3871C0.43896 12.6863 0.602795 12.9584 0.824426 13.1791ZM8.84904 1.65602C9.16049 1.50284 9.4997 1.41357 9.84618 1.39333V1.39552C10.1978 1.39952 10.5428 1.49048 10.8508 1.66019C11.1514 1.82682 11.4263 2.03624 11.6664 2.28203C11.9628 2.56677 12.2031 2.90463 12.3749 3.27797C12.5187 3.59811 12.5769 3.95009 12.5441 4.2995C12.5161 4.58684 12.428 4.86507 12.2857 5.11624C12.1174 5.41189 11.909 5.68285 11.6664 5.92134L10.6027 6.96259C9.75965 6.65457 8.99236 6.16129 8.35634 5.51601C7.75243 4.90332 7.28356 4.17024 6.97793 3.36559L8.03252 2.28522C8.26007 2.02315 8.53759 1.80919 8.84904 1.65602ZM6.26625 4.09467L2.04745 8.41662C1.90502 8.56595 1.78686 8.7368 1.69764 8.92288C1.63894 9.1062 1.6085 9.29742 1.60755 9.4899C1.57695 9.84181 1.52549 10.4313 1.38914 11.4029C1.35057 11.6355 1.36579 11.8739 1.43396 12.0996C1.49192 12.2891 1.49222 12.2894 1.59342 12.3776L1.59393 12.3781L1.64139 12.4204C1.74576 12.5383 1.88803 12.6163 2.0435 12.6413C2.05745 12.6413 2.39402 12.6125 2.85124 12.5653C3.27965 12.5203 3.90425 12.4509 4.44561 12.3654C4.83689 12.3309 5.2095 12.1831 5.5179 11.9398L9.8394 7.70973C9.02341 7.40044 8.28043 6.91668 7.66169 6.28919C7.04654 5.66535 6.57152 4.9167 6.26625 4.09467Z"
        fill="#fff" />
</svg>