<svg width="12" height="14" viewBox="0 0 12 14" fill="none" xmlns="http://www.w3.org/2000/svg">
    <path fill-rule="evenodd" clip-rule="evenodd"
        d="M0.511904 3.0387C0.494053 3.09861 0.488507 3.16176 0.495136 3.22392C0.506127 3.34238 0.560794 3.45249 0.648722 3.53262C0.73665 3.61275 0.851412 3.65688 0.970376 3.65686C0.985596 3.65686 1.00255 3.65605 2.31263 3.52804C5.63213 3.19165 7.62435 3.31856 10.9805 3.65495H11.0308C11.1491 3.65526 11.2631 3.61107 11.3502 3.53109C11.4373 3.45111 11.4913 3.34141 11.5011 3.22354C11.5132 3.09824 11.4752 2.97304 11.3956 2.87559C11.3159 2.77814 11.201 2.71634 11.0758 2.70333C10.2098 2.61825 9.43066 2.54645 8.69503 2.49182C8.6947 2.48768 8.69396 2.48346 8.69323 2.47924C8.69223 2.47348 8.69122 2.46771 8.69122 2.46209L8.55173 1.63737L8.55152 1.63608C8.4563 1.05226 8.31367 0.177734 6.8318 0.177734H5.16903C3.69187 0.177734 3.55146 1.02125 3.45001 1.63076L3.44986 1.63166L3.31037 2.46247C3.30967 2.46799 3.3087 2.47346 3.30732 2.47886C2.95844 2.50539 2.59519 2.53778 2.21469 2.5768L0.920451 2.70371C0.858215 2.70956 0.797643 2.72767 0.742474 2.75707C0.687305 2.78646 0.638748 2.82644 0.599178 2.87483C0.559608 2.92322 0.529756 2.9788 0.511904 3.0387ZM7.62107 1.7963L7.72778 2.42893C7.09908 2.39498 6.4896 2.37786 5.87027 2.37786C5.3563 2.37786 4.8335 2.38942 4.28715 2.41674L4.39767 1.7902L4.39853 1.78506C4.4922 1.22496 4.50704 1.13622 5.17818 1.13622H6.84056C7.51297 1.13622 7.5317 1.24448 7.62107 1.7963Z"
        fill="#fff" />
    <path fill-rule="evenodd" clip-rule="evenodd"
        d="M1.59314 11.6066C1.66338 12.5962 1.75161 13.8212 3.96591 13.8212H8.03994C10.255 13.8212 10.3432 12.5962 10.4135 11.6066L10.8258 5.21616C10.83 5.15365 10.8219 5.09067 10.8018 5.03132C10.7817 4.97198 10.7501 4.91723 10.7088 4.87011C10.6675 4.82299 10.6175 4.78463 10.5613 4.75692C10.5052 4.72921 10.444 4.71259 10.3815 4.70852C8.91784 4.45047 7.43594 4.30854 5.94995 4.28397C4.49879 4.3049 3.05192 4.44689 1.62439 4.70852C1.49851 4.71774 1.38134 4.77632 1.29816 4.87126C1.21498 4.96619 1.17261 5.09016 1.18002 5.21616L1.59314 11.6066ZM2.54463 11.5464L2.54438 11.5429L2.16442 5.65977C3.40935 5.39508 4.67731 5.25303 5.94995 5.23559C7.25728 5.25739 8.55973 5.39936 9.84105 5.65977L9.46147 11.5429C9.39786 12.5076 9.37305 12.8695 8.03994 12.8695H3.96591C2.64102 12.8695 2.61469 12.5081 2.54463 11.5464Z"
        fill="#fff" />
</svg>