<svg viewBox="0 0 40 40" width='16' height='16'>
    <path
        d="M20.1497 30.6449C20.3759 30.8711 20.6821 30.9992 21.002 31.0016C21.3217 30.9992 21.6277 30.8713 21.8539 30.6452C22.0801 30.4192 22.2084 30.1133 22.211 29.7936V22.5486C22.2086 22.2287 22.0805 21.9225 21.8543 21.6963C21.628 21.4701 21.3219 21.342 21.002 21.3396C20.6822 21.342 20.3762 21.4699 20.15 21.696C19.9238 21.922 19.7956 22.2279 19.793 22.5476V29.7926C19.7953 30.1125 19.9235 30.4187 20.1497 30.6449Z"
        fill="#2F2F3D"></path>
    <path class="Icon" fill-rule="evenodd" clip-rule="evenodd"
        d="M11.9773 37.1415H30.0263C31.4759 37.0976 32.8678 36.5632 33.9743 35.6258C35.0809 34.6883 35.8368 33.4032 36.1183 31.9805L38.2623 19.1585C38.3874 18.0789 38.2506 16.9851 37.8635 15.9696C37.4763 14.9541 36.8503 14.0468 36.0383 13.3245L24.8703 4.3965C23.7604 3.54735 22.4025 3.08591 21.005 3.08302C19.6075 3.08013 18.2477 3.53595 17.1343 4.3805L5.96931 13.3225C5.14771 14.0374 4.51471 14.9436 4.12615 15.961C3.73759 16.9785 3.60542 18.0759 3.74131 19.1565L5.88531 32.0005C6.15342 33.4279 6.90602 34.719 8.01597 35.6557C9.12591 36.5923 10.5252 37.1172 11.9773 37.1415ZM18.6483 6.2625C19.3218 5.75791 20.1439 5.4916 20.9853 5.5055C21.8393 5.49262 22.6731 5.76539 23.3543 6.2805L34.5223 15.2065C34.9975 15.6596 35.3657 16.2131 35.5999 16.8265C35.8342 17.44 35.9286 18.0979 35.8763 18.7525L33.7333 31.5805C33.5548 32.443 33.0929 33.2211 32.4212 33.7908C31.7494 34.3606 30.9064 34.6892 30.0263 34.7245H11.9763C11.0987 34.6898 10.2576 34.3634 9.58624 33.7971C8.91486 33.2308 8.45145 32.4568 8.26931 31.5975L6.12631 18.7695C6.06652 18.1143 6.15746 17.4541 6.39215 16.8395C6.62684 16.2249 6.99906 15.6721 7.48031 15.2235L18.6483 6.2625Z"
        fill="#2F2F3D"></path>
    <path class="Icon"
        d="M20.1497 30.6449C20.3759 30.8711 20.6821 30.9992 21.002 31.0016C21.3217 30.9992 21.6277 30.8713 21.8539 30.6452C22.0801 30.4192 22.2084 30.1133 22.211 29.7936V22.5486C22.2086 22.2287 22.0805 21.9225 21.8543 21.6963C21.628 21.4701 21.3219 21.342 21.002 21.3396C20.6822 21.342 20.3762 21.4699 20.15 21.696C19.9238 21.922 19.7956 22.2279 19.793 22.5476V29.7926C19.7953 30.1125 19.9235 30.4187 20.1497 30.6449Z"
        fill="#2F2F3D"></path>
    <path class="Icon" fill-rule="evenodd" clip-rule="evenodd"
        d="M11.9773 37.1415H30.0263C31.4759 37.0976 32.8678 36.5632 33.9743 35.6258C35.0809 34.6883 35.8368 33.4032 36.1183 31.9805L38.2623 19.1585C38.3874 18.0789 38.2506 16.9851 37.8635 15.9696C37.4763 14.9541 36.8503 14.0468 36.0383 13.3245L24.8703 4.3965C23.7604 3.54735 22.4025 3.08591 21.005 3.08302C19.6075 3.08013 18.2477 3.53595 17.1343 4.3805L5.96931 13.3225C5.14771 14.0374 4.51471 14.9436 4.12615 15.961C3.73759 16.9785 3.60542 18.0759 3.74131 19.1565L5.88531 32.0005C6.15342 33.4279 6.90602 34.719 8.01597 35.6557C9.12591 36.5923 10.5252 37.1172 11.9773 37.1415ZM18.6483 6.2625C19.3218 5.75791 20.1439 5.4916 20.9853 5.5055C21.8393 5.49262 22.6731 5.76539 23.3543 6.2805L34.5223 15.2065C34.9975 15.6596 35.3657 16.2131 35.5999 16.8265C35.8342 17.44 35.9286 18.0979 35.8763 18.7525L33.7333 31.5805C33.5548 32.443 33.0929 33.2211 32.4212 33.7908C31.7494 34.3606 30.9064 34.6892 30.0263 34.7245H11.9763C11.0987 34.6898 10.2576 34.3634 9.58624 33.7971C8.91486 33.2308 8.45145 32.4568 8.26931 31.5975L6.12631 18.7695C6.06652 18.1143 6.15746 17.4541 6.39215 16.8395C6.62684 16.2249 6.99906 15.6721 7.48031 15.2235L18.6483 6.2625Z"
        fill="#2F2F3D"></path>
</svg>