<svg width="14" height="14" viewBox="0 0 14 14" fill="none" xmlns="http://www.w3.org/2000/svg">
    <path
        d="M7.38224 13.4941C7.27864 13.4941 7.17464 13.4941 7.07103 13.4881C5.41216 13.4067 3.83882 12.7276 2.6418 11.5763C1.44479 10.4249 0.705031 8.87917 0.559269 7.22472C0.461862 5.81433 0.80945 4.40893 1.55306 3.20654C2.29666 2.00415 3.3988 1.0654 4.70417 0.522548C5.46739 0.20494 5.8702 0.448546 6.04101 0.62615C6.21181 0.796955 6.44982 1.19376 6.13261 1.92018C5.85203 2.56504 5.71055 3.26181 5.7174 3.96503C5.74679 5.29222 6.27976 6.55856 7.20826 7.50733C8.13675 8.45611 9.39129 9.01631 10.7175 9.07436C11.108 9.09093 11.499 9.0641 11.8836 8.99436C12.6892 8.84796 13.0252 9.17157 13.1532 9.37877C13.2812 9.58598 13.428 10.032 12.9396 10.6912C12.3001 11.5637 11.4632 12.2725 10.4973 12.7596C9.53143 13.2467 8.46399 13.4984 7.38224 13.4941ZM1.46889 7.15791C1.57703 8.36178 2.04901 9.50423 2.82209 10.4334C3.59516 11.3626 4.63272 12.0344 5.79685 12.3597C6.96097 12.685 8.19653 12.6483 9.33928 12.2544C10.482 11.8606 11.4778 11.1282 12.1944 10.1548C12.2565 10.0722 12.3078 9.98197 12.3472 9.88638C12.2451 9.87617 12.1421 9.88238 12.042 9.90478C11.5908 9.98424 11.1324 10.015 10.6747 9.99639C9.11382 9.9265 7.63787 9.26578 6.54601 8.14814C5.45414 7.0305 4.82803 5.53954 4.79457 3.97743C4.79071 3.14557 4.96118 2.32213 5.29499 1.56017C5.33643 1.47353 5.36345 1.38071 5.37499 1.28537C5.26697 1.29113 5.16119 1.31833 5.06378 1.36537C3.93522 1.83526 2.98188 2.64634 2.33725 3.68504C1.69262 4.72375 1.389 5.93805 1.46889 7.15791V7.15791Z"
        fill="#2F2F3D" />
</svg>